<svg xmlns="http://www.w3.org/2000/svg" fill="none" viewBox="0 0 14 14" height="14" width="14"><g id="zodiac-2--sign-astrology-stars-space-virgo"><path id="Union" fill="#55fa5eb0" fill-rule="evenodd" d="M3.077 2A1.077 1.077 0 0 0 2 3.077v6.23a1 1 0 1 1 -2 0v-6.23A3.077 3.077 0 0 1 5.154 0.807a3.077 3.077 0 0 1 5.106 1.731h0.308c2.896 0 4.346 3.501 2.298 5.549l-2.486 2.486A0.846 0.846 0 0 0 12 10.23v-0.423a1 1 0 1 1 2 0v0.423a2.847 2.847 0 0 1 -5.063 1.785l-0.73 0.73a1 1 0 0 1 -1.414 -1.415l1.515 -1.514v-6.74a1.077 1.077 0 0 0 -2.154 -0.006l0 0.006v6.23a1 1 0 1 1 -2 0v-6.22l0 -0.008A1.077 1.077 0 0 0 3.077 2Zm7.23 5.817 1.145 -1.145c0.787 -0.787 0.23 -2.134 -0.884 -2.134h-0.26v3.279Z" clip-rule="evenodd" stroke-width="1"></path></g></svg>